#!OML:ASF C:\ViconDB\ViconDB\414\Spring2016\041811\Spring2016.ASF
:FULLY-SPECIFIED
:DEGREES
434
root 10.9471 17.7699 -29.9156 -177.26 -7.49791 -176.476
lowerback -1.84236 1.21166 -6.12402
upperback -0.616164 1.67594 -0.944249
thorax 0.249125 0.820051 2.49005
lowerneck -14.6191 7.15083 0.244675
upperneck 27.5057 5.25374 11.5564
head 10.9735 3.25872 4.77898
rclavicle -9.93923e-015 3.18055e-015
rhumerus -92.8007 36.2976 -126.824
rradius 85.2856
rwrist 21.7034
rhand -47.8108 -5.09418
rfingers 7.12502
rthumb -20.4866 -34.0333
lclavicle -9.93923e-015 3.18055e-015
lhumerus -81.6558 -45.7695 115.116
lradius 82.9519
lwrist -33.2249
lhand -37.6846 -3.41115
lfingers 7.12502
lthumb -10.735 26.2946
rfemur 413.885 -388.412 8.08556
rtibia -53.739
rfoot -156.523 -92.8241
rtoes 2.98972e-013
lfemur -35.4096 -13.4823 -14.9594
ltibia 41.3526
lfoot -9.95444 -2.34392
ltoes 1.99779e-014
435
root 10.871 17.8406 -30.1059 -177.252 -7.31544 -177.308
lowerback -1.67488 1.18328 -6.23742
upperback -0.617718 1.62188 -1.06178
thorax 0.15824 0.793173 2.4275
lowerneck -14.6021 7.31489 0.193218
upperneck 27.5679 5.65392 11.1442
head 10.9736 3.3988 4.68909
rclavicle -1.27719e-014 -4.6118e-014
rhumerus -92.4418 36.2674 -126.746
rradius 85.0755
rwrist 22.0251
rhand -47.9355 -4.99985
rfingers 7.12502
rthumb -20.6064 -33.9261
lclavicle -1.27719e-014 -4.6118e-014
lhumerus -81.9794 -45.9986 115.334
lradius 82.9426
lwrist -33.0888
lhand -37.6744 -3.15452
lfingers 7.12502
lthumb -10.7253 26.5517
rfemur 414.657 -387.688 7.30508
rtibia -56.6538
rfoot -179.077 -93.4395
rtoes -3.49861e-014
lfemur -33.8294 -13.1377 -16.2664
ltibia 40.2915
lfoot -10.1832 -2.70093
ltoes -3.27995e-015
436
root 10.7974 17.9048 -30.2935 -177.364 -7.09573 -178.227
lowerback -1.39925 1.17565 -6.43369
upperback -0.555505 1.59007 -1.18071
thorax 0.0681014 0.776192 2.40851
lowerneck -14.6451 7.44793 0.0922298
upperneck 27.669 6.02561 10.7089
head 11.0026 3.5184 4.60132
rclavicle 1.43622e-014 3.02153e-014
rhumerus -92.0079 36.1633 -126.616
rradius 84.5335
rwrist 23.4272
rhand -48.7239 -6.19914
rfingers 7.12502
rthumb -21.3639 -35.0414
lclavicle 1.43622e-014 3.02153e-014
lhumerus -82.3525 -46.228 115.597
lradius 83.0653
lwrist -32.276
lhand -37.738 -3.43008
lfingers 7.12502
lthumb -10.7865 26.273
rfemur 415.102 -387.067 6.45552
rtibia -59.2471
rfoot -180.713 -94.0365
rtoes 1.1291e-013
lfemur -32.1215 -12.8191 -17.7277
ltibia 39.2445
lfoot -10.4527 -2.91118
ltoes 2.29596e-014
437
root 10.7193 17.9636 -30.4805 -177.424 -6.73995 -179.052
lowerback -1.28821 1.14285 -6.60685
upperback -0.44864 1.54436 -1.17032
thorax 0.115039 0.749885 2.51424
lowerneck -14.7104 7.66731 0.0154107
upperneck 27.7502 6.61659 10.0006
head 11.0278 3.71381 4.43841
rclavicle -1.03865e-014 5.56597e-015
rhumerus -91.4199 36.269 -126.205
rradius 84.2035
rwrist 23.6011
rhand -48.5011 -5.58246
rfingers 7.12502
rthumb -21.1498 -34.4488
lclavicle -1.03865e-014 5.56597e-015
lhumerus -82.2815 -46.2302 115.547
lradius 83.0592
lwrist -32.4514
lhand -37.5449 -3.27064
lfingers 7.12502
lthumb -10.6003 26.442
rfemur 415.046 -386.439 5.83987
rtibia -61.4659
rfoot -184.313 -94.6986
rtoes -7.31528e-014
lfemur -30.4663 -12.1976 -19.1281
ltibia 38.18
lfoot -10.7042 -3.20862
ltoes 7.38485e-014
438
root 10.6388 17.996 -30.6548 -177.484 -6.48625 -180.015
lowerback -1.05225 1.09917 -6.73794
upperback -0.363266 1.46392 -1.338
thorax 0.0787277 0.705227 2.40995
lowerneck -14.8059 7.88967 0.114523
upperneck 27.8879 7.08422 9.45839
head 11.097 3.88137 4.29769
rclavicle -6.75868e-015 7.95139e-014
rhumerus -91.0409 36.2883 -126.242
rradius 84.2267
rwrist 22.4649
rhand -47.7242 -4.15668
rfingers 7.12502
rthumb -20.4034 -33.1048
lclavicle -6.75868e-015 7.95139e-014
lhumerus -82.3501 -46.2841 115.392
lradius 83.0196
lwrist -32.8349
lhand -37.9286 -3.02836
lfingers 7.12502
lthumb -10.9704 26.665
rfemur 414.753 -385.92 5.07295
rtibia -63.3836
rfoot -191.501 -95.5405
rtoes 1.36764e-013
lfemur -28.9647 -11.6462 -20.6538
ltibia 37.243
lfoot -10.9903 -3.55417
ltoes -1.35174e-014
439
root 10.5609 18.0234 -30.8398 -177.726 -6.07619 -180.821
lowerback -0.815051 1.11872 -6.77376
upperback -0.224512 1.47396 -1.40994
thorax 0.0887005 0.705526 2.35256
lowerneck -14.8499 8.07121 0.0305178
upperneck 28.0146 7.53188 8.96763
head 11.143 4.02388 4.19942
rclavicle -1.04362e-014 1.19271e-014
rhumerus -90.9072 36.3648 -126.366
rradius 84.3453
rwrist 20.9218
rhand -47.5287 -2.69602
rfingers 7.12502
rthumb -20.2155 -31.6641
lclavicle -1.04362e-014 1.19271e-014
lhumerus -82.4279 -46.272 115.328
lradius 83.0998
lwrist -32.3744
lhand -37.9068 -3.26468
lfingers 7.12502
lthumb -10.9493 26.4298
rfemur 414.179 -385.227 4.53413
rtibia -64.8183
rfoot -200.602 -96.2646
rtoes 5.08889e-014
lfemur -27.3204 -11.1226 -21.9937
ltibia 36.4423
lfoot -11.4125 -3.75097
ltoes 1.95803e-014
